<svg width="21" height="21" viewBox="0 0 21 21" fill="none" xmlns="http://www.w3.org/2000/svg">
<path d="M10.1787 2.4436L9.94336 3.30591L8.86719 7.25415L8.81543 7.4436H12.0508V13.2766H18.7178V14.6428H17.0508V17.9768H15.6846V14.6428H12.0508V15.4768H10.3848V17.9768H9.01758V15.4768H5.38477V17.9768H4.01758V15.4768H2.35156V7.4436H4.75391L4.70215 7.25415L3.625 3.30591L3.38965 2.4436H10.1787ZM3.71777 14.1096H10.6846V8.80981H3.71777V14.1096ZM17.8848 8.27661V12.1428H13.1846V8.27661H17.8848ZM14.5508 10.7766H16.5176V9.64282H14.5508V10.7766ZM5.23047 3.99927L6.13965 7.33228L6.16992 7.4436H7.39941L7.42871 7.33228L8.33789 3.99927L8.38965 3.80981H5.17871L5.23047 3.99927Z" fill="#020100" stroke="white" stroke-width="0.3"/>
</svg>
