<svg width="24" height="25" viewBox="0 0 24 25" fill="none" xmlns="http://www.w3.org/2000/svg">
<path d="M21.531 7.63578L9.53104 19.6358C9.46139 19.7055 9.37867 19.7608 9.28762 19.7986C9.19657 19.8363 9.09898 19.8557 9.00042 19.8557C8.90186 19.8557 8.80426 19.8363 8.71321 19.7986C8.62216 19.7608 8.53945 19.7055 8.46979 19.6358L3.21979 14.3858C3.07906 14.245 3 14.0542 3 13.8552C3 13.6561 3.07906 13.4653 3.21979 13.3245C3.36052 13.1838 3.55139 13.1047 3.75042 13.1047C3.94944 13.1047 4.14031 13.1838 4.28104 13.3245L9.00042 18.0448L20.4698 6.57453C20.6105 6.4338 20.8014 6.35474 21.0004 6.35474C21.1994 6.35474 21.3903 6.4338 21.531 6.57453C21.6718 6.71526 21.7508 6.90613 21.7508 7.10515C21.7508 7.30418 21.6718 7.49505 21.531 7.63578Z" fill="white"/>
</svg>
