<svg width="21" height="21" viewBox="0 0 21 21" fill="none" xmlns="http://www.w3.org/2000/svg">
<path d="M18.0342 6.17029V10.337M3.03418 6.17029V14.6378C3.03418 15.7903 4.65585 16.4753 7.89835 17.8445C9.20085 18.3953 9.85251 18.6703 10.5342 18.6703V9.79945M13.0342 16.1703C13.0342 16.1703 13.7633 16.1703 14.4925 17.837C14.4925 17.837 16.8092 13.6703 18.8675 12.837" stroke="black" stroke-width="1.2" stroke-linecap="round" stroke-linejoin="round"/>
<path d="M5.53418 10.337L7.20085 11.1703M14.7008 3.67033L6.36751 7.837M7.47251 8.41283L5.03835 7.23533C3.70251 6.58866 3.03418 6.26533 3.03418 5.75366C3.03418 5.242 3.70251 4.91866 5.03835 4.272L7.47168 3.0945C8.97585 2.367 9.72585 2.00366 10.5342 2.00366C11.3425 2.00366 12.0933 2.367 13.5958 3.0945L16.03 4.272C17.3658 4.91866 18.0342 5.242 18.0342 5.75366C18.0342 6.26533 17.3658 6.58866 16.03 7.23533L13.5967 8.41283C12.0925 9.14033 11.3425 9.50366 10.5342 9.50366C9.72585 9.50366 8.97501 9.14033 7.47251 8.41283Z" stroke="black" stroke-width="1.2" stroke-linecap="round" stroke-linejoin="round"/>
</svg>
