<svg width="21" height="21" viewBox="0 0 21 21" fill="none" xmlns="http://www.w3.org/2000/svg">
<path d="M19.6154 4.73411C19.5255 4.67795 19.4227 4.64562 19.3167 4.64015C19.2108 4.63468 19.1052 4.65626 19.01 4.70286C15.6561 6.34348 13.2607 5.57473 10.7287 4.76379C8.07246 3.91301 5.31855 3.03411 1.51387 4.89192C1.40756 4.94291 1.31785 5.02293 1.25509 5.12274C1.19233 5.22255 1.15908 5.33808 1.15918 5.45598V14.8255C1.15916 14.9316 1.18613 15.0359 1.23754 15.1286C1.28895 15.2214 1.36312 15.2995 1.45305 15.3557C1.54299 15.4119 1.64575 15.4442 1.75165 15.4498C1.85754 15.4553 1.96311 15.4338 2.0584 15.3872C5.4123 13.7466 7.80762 14.5154 10.3436 15.3263C11.8467 15.8068 13.3779 16.2966 15.1092 16.2966C16.4443 16.2966 17.9006 16.006 19.5553 15.1982C19.6604 15.1469 19.749 15.0671 19.811 14.9679C19.873 14.8688 19.9059 14.7542 19.9061 14.6372V5.2677C19.907 5.16138 19.8808 5.05658 19.8299 4.96321C19.7791 4.86984 19.7053 4.79098 19.6154 4.73411ZM18.6592 14.2396C15.4873 15.6591 13.1709 14.9185 10.7248 14.1365C9.22168 13.656 7.69043 13.1661 5.95918 13.1661C4.74285 13.172 3.5389 13.4107 2.41231 13.8693V5.85364C5.58418 4.43411 7.90059 5.17473 10.3467 5.95676C12.7928 6.73879 15.3107 7.54661 18.6592 6.22551V14.2396ZM10.5342 7.54661C10.0397 7.54661 9.55638 7.69323 9.14525 7.96793C8.73413 8.24264 8.4137 8.63308 8.22448 9.0899C8.03526 9.54671 7.98575 10.0494 8.08222 10.5343C8.17868 11.0193 8.41678 11.4647 8.76641 11.8144C9.11604 12.164 9.5615 12.4021 10.0465 12.4986C10.5314 12.595 11.0341 12.5455 11.4909 12.3563C11.9477 12.1671 12.3382 11.8467 12.6129 11.4355C12.8876 11.0244 13.0342 10.5411 13.0342 10.0466C13.0342 9.38356 12.7708 8.74768 12.3019 8.27884C11.8331 7.81 11.1972 7.54661 10.5342 7.54661ZM10.5342 11.2966C10.287 11.2966 10.0453 11.2233 9.83972 11.0859C9.63416 10.9486 9.47394 10.7534 9.37933 10.525C9.28472 10.2966 9.25997 10.0452 9.3082 9.80274C9.35643 9.56027 9.47548 9.33754 9.6503 9.16272C9.82511 8.98791 10.0478 8.86886 10.2903 8.82062C10.5328 8.77239 10.7841 8.79715 11.0125 8.89176C11.2409 8.98637 11.4362 9.14658 11.5735 9.35214C11.7109 9.5577 11.7842 9.79938 11.7842 10.0466C11.7842 10.3781 11.6525 10.6961 11.4181 10.9305C11.1836 11.1649 10.8657 11.2966 10.5342 11.2966ZM4.90918 7.54661V11.2966C4.90918 11.4624 4.84333 11.6213 4.72612 11.7385C4.60891 11.8558 4.44994 11.9216 4.28418 11.9216C4.11842 11.9216 3.95945 11.8558 3.84224 11.7385C3.72503 11.6213 3.65918 11.4624 3.65918 11.2966V7.54661C3.65918 7.38085 3.72503 7.22187 3.84224 7.10466C3.95945 6.98745 4.11842 6.92161 4.28418 6.92161C4.44994 6.92161 4.60891 6.98745 4.72612 7.10466C4.84333 7.22187 4.90918 7.38085 4.90918 7.54661ZM16.1592 12.5466V8.79661C16.1592 8.63085 16.225 8.47187 16.3422 8.35466C16.4594 8.23745 16.6184 8.17161 16.7842 8.17161C16.9499 8.17161 17.1089 8.23745 17.2261 8.35466C17.3433 8.47187 17.4092 8.63085 17.4092 8.79661V12.5466C17.4092 12.7124 17.3433 12.8713 17.2261 12.9885C17.1089 13.1058 16.9499 13.1716 16.7842 13.1716C16.6184 13.1716 16.4594 13.1058 16.3422 12.9885C16.225 12.8713 16.1592 12.7124 16.1592 12.5466Z" fill="black"/>
</svg>
