<svg width="24" height="25" viewBox="0 0 24 25" fill="none" xmlns="http://www.w3.org/2000/svg">
<path d="M20.25 5.35474H16.5V4.60474C16.5 4.008 16.2629 3.4357 15.841 3.01375C15.419 2.59179 14.8467 2.35474 14.25 2.35474H9.75C9.15326 2.35474 8.58097 2.59179 8.15901 3.01375C7.73705 3.4357 7.5 4.008 7.5 4.60474V5.35474H3.75C3.55109 5.35474 3.36032 5.43375 3.21967 5.57441C3.07902 5.71506 3 5.90582 3 6.10474C3 6.30365 3.07902 6.49441 3.21967 6.63507C3.36032 6.77572 3.55109 6.85474 3.75 6.85474H4.5V20.3547C4.5 20.7526 4.65804 21.1341 4.93934 21.4154C5.22064 21.6967 5.60218 21.8547 6 21.8547H18C18.3978 21.8547 18.7794 21.6967 19.0607 21.4154C19.342 21.1341 19.5 20.7526 19.5 20.3547V6.85474H20.25C20.4489 6.85474 20.6397 6.77572 20.7803 6.63507C20.921 6.49441 21 6.30365 21 6.10474C21 5.90582 20.921 5.71506 20.7803 5.57441C20.6397 5.43375 20.4489 5.35474 20.25 5.35474ZM9 4.60474C9 4.40582 9.07902 4.21506 9.21967 4.07441C9.36032 3.93375 9.55109 3.85474 9.75 3.85474H14.25C14.4489 3.85474 14.6397 3.93375 14.7803 4.07441C14.921 4.21506 15 4.40582 15 4.60474V5.35474H9V4.60474ZM18 20.3547H6V6.85474H18V20.3547ZM10.5 10.6047V16.6047C10.5 16.8036 10.421 16.9944 10.2803 17.1351C10.1397 17.2757 9.94891 17.3547 9.75 17.3547C9.55109 17.3547 9.36032 17.2757 9.21967 17.1351C9.07902 16.9944 9 16.8036 9 16.6047V10.6047C9 10.4058 9.07902 10.2151 9.21967 10.0744C9.36032 9.93375 9.55109 9.85474 9.75 9.85474C9.94891 9.85474 10.1397 9.93375 10.2803 10.0744C10.421 10.2151 10.5 10.4058 10.5 10.6047ZM15 10.6047V16.6047C15 16.8036 14.921 16.9944 14.7803 17.1351C14.6397 17.2757 14.4489 17.3547 14.25 17.3547C14.0511 17.3547 13.8603 17.2757 13.7197 17.1351C13.579 16.9944 13.5 16.8036 13.5 16.6047V10.6047C13.5 10.4058 13.579 10.2151 13.7197 10.0744C13.8603 9.93375 14.0511 9.85474 14.25 9.85474C14.4489 9.85474 14.6397 9.93375 14.7803 10.0744C14.921 10.2151 15 10.4058 15 10.6047Z" fill="#020100"/>
</svg>
