<svg width="31" height="32" viewBox="0 0 31 32" fill="none" xmlns="http://www.w3.org/2000/svg">
<path d="M29.0625 17.3232V25.0732C29.0625 25.5871 28.8584 26.0799 28.495 26.4433C28.1317 26.8066 27.6389 27.0107 27.125 27.0107H3.875C3.36114 27.0107 2.86833 26.8066 2.50498 26.4433C2.14163 26.0799 1.9375 25.5871 1.9375 25.0732V17.3232C1.9375 16.8094 2.14163 16.3166 2.50498 15.9532C2.86833 15.5899 3.36114 15.3857 3.875 15.3857H8.71875C8.97568 15.3857 9.22208 15.4878 9.40376 15.6695C9.58544 15.8512 9.6875 16.0976 9.6875 16.3545C9.6875 16.6114 9.58544 16.8578 9.40376 17.0395C9.22208 17.2212 8.97568 17.3232 8.71875 17.3232H3.875V25.0732H27.125V17.3232H22.2812C22.0243 17.3232 21.7779 17.2212 21.5962 17.0395C21.4146 16.8578 21.3125 16.6114 21.3125 16.3545C21.3125 16.0976 21.4146 15.8512 21.5962 15.6695C21.7779 15.4878 22.0243 15.3857 22.2812 15.3857H27.125C27.6389 15.3857 28.1317 15.5899 28.495 15.9532C28.8584 16.3166 29.0625 16.8094 29.0625 17.3232ZM14.8146 17.0399C14.9046 17.13 15.0114 17.2014 15.129 17.2502C15.2466 17.2989 15.3727 17.324 15.5 17.324C15.6273 17.324 15.7534 17.2989 15.871 17.2502C15.9886 17.2014 16.0954 17.13 16.1854 17.0399L21.9979 11.2274C22.1797 11.0456 22.2818 10.7991 22.2818 10.542C22.2818 10.2849 22.1797 10.0384 21.9979 9.8566C21.8161 9.67482 21.5696 9.5727 21.3125 9.5727C21.0554 9.5727 20.8089 9.67482 20.6271 9.8566L16.4688 14.0162V3.76074C16.4688 3.50381 16.3667 3.25741 16.185 3.07573C16.0033 2.89406 15.7569 2.79199 15.5 2.79199C15.2431 2.79199 14.9967 2.89406 14.815 3.07573C14.6333 3.25741 14.5312 3.50381 14.5312 3.76074V14.0162L10.3729 9.8566C10.1911 9.67482 9.94457 9.5727 9.6875 9.5727C9.43043 9.5727 9.18389 9.67483 9.00211 9.8566C8.82033 10.0384 8.71821 10.2849 8.71821 10.542C8.71821 10.7991 8.82033 11.0456 9.00211 11.2274L14.8146 17.0399ZM24.2188 21.1982C24.2188 20.9108 24.1335 20.6299 23.9739 20.3909C23.8142 20.152 23.5872 19.9657 23.3217 19.8557C23.0562 19.7457 22.764 19.717 22.4821 19.773C22.2003 19.8291 21.9413 19.9675 21.7381 20.1707C21.5349 20.374 21.3965 20.6329 21.3404 20.9148C21.2844 21.1966 21.3131 21.4888 21.4231 21.7543C21.5331 22.0199 21.7193 22.2468 21.9583 22.4065C22.1973 22.5661 22.4782 22.6514 22.7656 22.6514C23.151 22.6514 23.5206 22.4983 23.7931 22.2258C24.0657 21.9532 24.2188 21.5836 24.2188 21.1982Z" fill="white"/>
</svg>
