<svg width="24" height="25" viewBox="0 0 24 25" fill="none" xmlns="http://www.w3.org/2000/svg">
<path d="M21.3113 7.73319L17.1216 3.54444C16.9823 3.40512 16.8169 3.2946 16.6349 3.21919C16.4529 3.14379 16.2578 3.10498 16.0608 3.10498C15.8638 3.10498 15.6687 3.14379 15.4867 3.21919C15.3047 3.2946 15.1393 3.40512 15 3.54444L3.43969 15.1048C3.2998 15.2435 3.18889 15.4087 3.11341 15.5908C3.03792 15.7728 2.99938 15.968 3.00001 16.1651V20.3548C3.00001 20.7526 3.15804 21.1341 3.43935 21.4154C3.72065 21.6967 4.10218 21.8548 4.50001 21.8548H20.25C20.4489 21.8548 20.6397 21.7757 20.7803 21.6351C20.921 21.4944 21 21.3037 21 21.1048C21 20.9058 20.921 20.7151 20.7803 20.5744C20.6397 20.4338 20.4489 20.3548 20.25 20.3548H10.8113L21.3113 9.85475C21.4506 9.71546 21.5611 9.55009 21.6365 9.36808C21.7119 9.18607 21.7507 8.99098 21.7507 8.79397C21.7507 8.59696 21.7119 8.40188 21.6365 8.21987C21.5611 8.03786 21.4506 7.87248 21.3113 7.73319ZM8.68969 20.3548H4.50001V16.1651L12.75 7.91507L16.9397 12.1048L8.68969 20.3548ZM18 11.0444L13.8113 6.85475L16.0613 4.60475L20.25 8.79444L18 11.0444Z" fill="#020100"/>
</svg>
