<svg width="33" height="32" viewBox="0 0 33 32" fill="none" xmlns="http://www.w3.org/2000/svg">
<path d="M29.1257 16.0001H12.6523M6.83765 16.0001H4.45898M6.83765 16.0001C6.83765 15.2292 7.14389 14.4898 7.68899 13.9447C8.2341 13.3996 8.97342 13.0934 9.74432 13.0934C10.5152 13.0934 11.2545 13.3996 11.7996 13.9447C12.3447 14.4898 12.651 15.2292 12.651 16.0001C12.651 16.771 12.3447 17.5103 11.7996 18.0554C11.2545 18.6005 10.5152 18.9067 9.74432 18.9067C8.97342 18.9067 8.2341 18.6005 7.68899 18.0554C7.14389 17.5103 6.83765 16.771 6.83765 16.0001ZM29.1257 24.8094H21.4617M21.4617 24.8094C21.4617 25.5805 21.1547 26.3206 20.6094 26.8659C20.0642 27.4111 19.3247 27.7174 18.5537 27.7174C17.7828 27.7174 17.0434 27.4098 16.4983 26.8647C15.9532 26.3196 15.647 25.5803 15.647 24.8094M21.4617 24.8094C21.4617 24.0383 21.1547 23.2995 20.6094 22.7543C20.0642 22.209 19.3247 21.9027 18.5537 21.9027C17.7828 21.9027 17.0434 22.209 16.4983 22.7541C15.9532 23.2992 15.647 24.0385 15.647 24.8094M15.647 24.8094H4.45898M29.1257 7.19072H24.9857M19.171 7.19072H4.45898M19.171 7.19072C19.171 6.41983 19.4772 5.68051 20.0223 5.1354C20.5674 4.59029 21.3068 4.28406 22.0777 4.28406C22.4594 4.28406 22.8373 4.35924 23.19 4.50531C23.5426 4.65139 23.8631 4.86549 24.133 5.1354C24.4029 5.40531 24.617 5.72574 24.7631 6.07839C24.9091 6.43104 24.9843 6.80902 24.9843 7.19072C24.9843 7.57243 24.9091 7.95041 24.7631 8.30306C24.617 8.65571 24.4029 8.97614 24.133 9.24605C23.8631 9.51596 23.5426 9.73006 23.19 9.87613C22.8373 10.0222 22.4594 10.0974 22.0777 10.0974C21.3068 10.0974 20.5674 9.79115 20.0223 9.24605C19.4772 8.70094 19.171 7.96162 19.171 7.19072Z" stroke="white" stroke-width="2.1875" stroke-miterlimit="10" stroke-linecap="round"/>
</svg>
