<svg width="21" height="21" viewBox="0 0 21 21" fill="none" xmlns="http://www.w3.org/2000/svg">
<path d="M9.46673 12.9744L16.9667 5.47435C17.0248 5.41628 17.0937 5.37022 17.1696 5.33879C17.2455 5.30737 17.3268 5.29119 17.4089 5.29119C17.491 5.29119 17.5724 5.30737 17.6482 5.33879C17.7241 5.37022 17.793 5.41628 17.8511 5.47435C17.9092 5.53242 17.9552 5.60136 17.9867 5.67723C18.0181 5.7531 18.0343 5.83442 18.0343 5.91654C18.0343 5.99866 18.0181 6.07998 17.9867 6.15585C17.9552 6.23172 17.9092 6.30066 17.8511 6.35873L10.3511 13.8587C10.293 13.9168 10.2241 13.9629 10.1482 13.9943C10.0724 14.0257 9.99104 14.0419 9.90892 14.0419C9.8268 14.0419 9.74548 14.0257 9.66961 13.9943C9.59374 13.9629 9.5248 13.9168 9.46673 13.8587C9.40866 13.8007 9.3626 13.7317 9.33117 13.6559C9.29975 13.58 9.28357 13.4987 9.28357 13.4165C9.28357 13.3344 9.29975 13.2531 9.33117 13.1772C9.3626 13.1014 9.40866 13.0324 9.46673 12.9744ZM10.5339 7.79154C11.0768 7.79085 11.6162 7.87873 12.1308 8.0517C12.2089 8.0794 12.2918 8.09128 12.3746 8.08665C12.4573 8.08202 12.5383 8.06097 12.6129 8.02472C12.6874 7.98848 12.754 7.93777 12.8088 7.87554C12.8636 7.81331 12.9054 7.74081 12.9319 7.66226C12.9584 7.5837 12.969 7.50067 12.963 7.41798C12.9571 7.3353 12.9348 7.25462 12.8974 7.18064C12.86 7.10666 12.8083 7.04086 12.7452 6.98707C12.6821 6.93328 12.609 6.89257 12.53 6.86732C11.534 6.53154 10.4694 6.45238 9.43471 6.63714C8.4 6.82191 7.42861 7.26464 6.61037 7.92438C5.79214 8.58412 5.15351 9.43956 4.75356 10.4116C4.3536 11.3836 4.20524 12.4407 4.3222 13.4853C4.33911 13.6381 4.41171 13.7792 4.52615 13.8819C4.64058 13.9845 4.78881 14.0413 4.94251 14.0415C4.96517 14.0415 4.98861 14.0415 5.01204 14.0376C5.17676 14.0194 5.32747 13.9364 5.43105 13.8071C5.53463 13.6777 5.58259 13.5125 5.56439 13.3478C5.54405 13.1631 5.53388 12.9774 5.53392 12.7915C5.53537 11.4659 6.06261 10.195 6.99998 9.25761C7.93735 8.32024 9.20828 7.79299 10.5339 7.79154ZM18.3261 8.80717C18.2887 8.73412 18.2372 8.66916 18.1746 8.616C18.1121 8.56285 18.0397 8.52253 17.9615 8.49736C17.8834 8.47218 17.8011 8.46265 17.7193 8.46929C17.6375 8.47593 17.5577 8.49862 17.4847 8.53607C17.4117 8.57352 17.3467 8.62499 17.2935 8.68754C17.2404 8.75009 17.2001 8.8225 17.1749 8.90063C17.1497 8.97876 17.1402 9.06109 17.1468 9.1429C17.1535 9.22472 17.1762 9.30443 17.2136 9.37748C17.676 10.2855 17.9491 11.278 18.0162 12.2948C18.0834 13.3116 17.9432 14.3314 17.6042 15.2923L3.45579 15.2869C3.06105 14.1553 2.9425 12.9458 3.11004 11.7592C3.27758 10.5725 3.72634 9.44309 4.41892 8.46507C5.11151 7.48704 6.02784 6.68873 7.09155 6.1367C8.15525 5.58466 9.3355 5.29489 10.5339 5.29154H10.6027C11.7667 5.29886 12.9126 5.57986 13.948 6.11185C14.0212 6.15217 14.1018 6.17737 14.185 6.18598C14.2681 6.19459 14.3522 6.18642 14.4321 6.16197C14.5121 6.13751 14.5863 6.09726 14.6504 6.0436C14.7146 5.98995 14.7673 5.92397 14.8054 5.84958C14.8436 5.77519 14.8664 5.6939 14.8726 5.61052C14.8788 5.52714 14.8682 5.44337 14.8414 5.36416C14.8146 5.28495 14.7723 5.21193 14.7167 5.1494C14.6612 5.08687 14.5938 5.03611 14.5183 5.00013C12.9597 4.20179 11.1974 3.8895 9.45931 4.10364C7.72126 4.31778 6.08745 5.04851 4.76923 6.20131C3.451 7.35411 2.50901 8.87593 2.06509 10.5699C1.62118 12.2639 1.69578 14.0521 2.27923 15.7033C2.36542 15.9479 2.52526 16.1598 2.73677 16.3099C2.94829 16.46 3.20111 16.5409 3.46048 16.5415H17.6066C17.8658 16.5417 18.1187 16.4613 18.3302 16.3113C18.5417 16.1614 18.7013 15.9495 18.787 15.7048C19.1812 14.5837 19.3436 13.3941 19.2644 12.2083C19.1852 11.0225 18.866 9.86514 18.3261 8.80638V8.80717Z" fill="white"/>
</svg>
