<svg width="24" height="25" viewBox="0 0 24 25" fill="none" xmlns="http://www.w3.org/2000/svg">
<path d="M12 2.60474C10.0716 2.60474 8.18657 3.17656 6.58319 4.24791C4.97982 5.31925 3.73013 6.84199 2.99218 8.62357C2.25422 10.4052 2.06114 12.3656 2.43735 14.2569C2.81355 16.1482 3.74215 17.8855 5.10571 19.249C6.46928 20.6126 8.20656 21.5412 10.0979 21.9174C11.9892 22.2936 13.9496 22.1005 15.7312 21.3626C17.5127 20.6246 19.0355 19.3749 20.1068 17.7715C21.1782 16.1682 21.75 14.2831 21.75 12.3547C21.7473 9.76971 20.7192 7.29135 18.8913 5.46346C17.0634 3.63557 14.585 2.60747 12 2.60474ZM12 20.6047C10.3683 20.6047 8.77326 20.1209 7.41655 19.2144C6.05984 18.3078 5.00242 17.0194 4.378 15.5119C3.75358 14.0044 3.5902 12.3456 3.90853 10.7452C4.22685 9.1449 5.01259 7.67489 6.16637 6.52111C7.32016 5.36732 8.79017 4.58159 10.3905 4.26326C11.9909 3.94493 13.6497 4.10831 15.1571 4.73273C16.6646 5.35715 17.9531 6.41458 18.8596 7.77128C19.7661 9.12799 20.25 10.723 20.25 12.3547C20.2475 14.542 19.3775 16.639 17.8309 18.1856C16.2843 19.7323 14.1873 20.6023 12 20.6047ZM11.25 13.1047V7.85474C11.25 7.65582 11.329 7.46506 11.4697 7.32441C11.6103 7.18375 11.8011 7.10474 12 7.10474C12.1989 7.10474 12.3897 7.18375 12.5303 7.32441C12.671 7.46506 12.75 7.65582 12.75 7.85474V13.1047C12.75 13.3036 12.671 13.4944 12.5303 13.6351C12.3897 13.7757 12.1989 13.8547 12 13.8547C11.8011 13.8547 11.6103 13.7757 11.4697 13.6351C11.329 13.4944 11.25 13.3036 11.25 13.1047ZM13.125 16.4797C13.125 16.7022 13.059 16.9197 12.9354 17.1048C12.8118 17.2898 12.6361 17.434 12.4305 17.5191C12.225 17.6042 11.9988 17.6265 11.7805 17.5831C11.5623 17.5397 11.3618 17.4326 11.2045 17.2752C11.0472 17.1179 10.94 16.9174 10.8966 16.6992C10.8532 16.481 10.8755 16.2548 10.9606 16.0492C11.0458 15.8437 11.19 15.6679 11.375 15.5443C11.56 15.4207 11.7775 15.3547 12 15.3547C12.2984 15.3547 12.5845 15.4733 12.7955 15.6842C13.0065 15.8952 13.125 16.1814 13.125 16.4797Z" fill="white"/>
</svg>
