<svg width="17" height="18" viewBox="0 0 17 18" fill="none" xmlns="http://www.w3.org/2000/svg">
<path d="M16.0092 4.1888L9.13418 0.427077C8.95049 0.325579 8.74405 0.272339 8.53418 0.272339C8.32431 0.272339 8.11787 0.325579 7.93418 0.427077L1.05918 4.19036C0.862843 4.29778 0.698948 4.45595 0.584611 4.64835C0.470274 4.84074 0.409688 5.0603 0.40918 5.28411V12.756C0.409688 12.9798 0.470274 13.1994 0.584611 13.3917C0.698948 13.5841 0.862843 13.7423 1.05918 13.8497L7.93418 17.613C8.11787 17.7145 8.32431 17.7678 8.53418 17.7678C8.74405 17.7678 8.95049 17.7145 9.13418 17.613L16.0092 13.8497C16.2055 13.7423 16.3694 13.5841 16.4837 13.3917C16.5981 13.1994 16.6587 12.9798 16.6592 12.756V5.28489C16.6591 5.06069 16.5987 4.84064 16.4843 4.64779C16.37 4.45495 16.2059 4.29641 16.0092 4.1888ZM8.53418 1.52083L14.8107 4.95833L8.53418 8.39583L2.25762 4.95833L8.53418 1.52083ZM1.65918 6.05208L7.90918 9.47239V16.1747L1.65918 12.7568V6.05208ZM9.15918 16.1747V9.47551L15.4092 6.05208V12.7536L9.15918 16.1747Z" fill="black"/>
</svg>
