<svg width="26" height="26" viewBox="0 0 26 26" fill="none" xmlns="http://www.w3.org/2000/svg">
<path d="M22.1542 7.13162C21.9705 7.22678 21.7564 7.24509 21.5592 7.18251C21.3619 7.11993 21.1976 6.98158 21.1023 6.79789C20.3571 5.32584 19.2293 4.08167 17.8372 3.1961C17.7504 3.14138 17.6753 3.07011 17.6161 2.98636C17.5569 2.9026 17.5147 2.808 17.4921 2.70797C17.4694 2.60793 17.4667 2.50441 17.484 2.40332C17.5014 2.30222 17.5385 2.20554 17.5932 2.11878C17.6479 2.03203 17.7192 1.9569 17.803 1.89769C17.8867 1.83847 17.9813 1.79634 18.0813 1.77368C18.1814 1.75103 18.2849 1.7483 18.386 1.76566C18.4871 1.78301 18.5838 1.82011 18.6705 1.87483C20.2929 2.91363 21.6103 4.36472 22.488 6.07968C22.5831 6.26344 22.6014 6.47748 22.5389 6.67473C22.4763 6.87199 22.3379 7.03632 22.1542 7.13162ZM3.78034 7.21945C3.92336 7.21939 4.06361 7.18004 4.18579 7.1057C4.30798 7.03136 4.40739 6.92488 4.47318 6.79789C5.21832 5.32584 6.3462 4.08167 7.7383 3.1961C7.91352 3.08559 8.03765 2.91 8.0834 2.70797C8.12915 2.50593 8.09277 2.29399 7.98226 2.11878C7.87175 1.94357 7.69616 1.81944 7.49413 1.77368C7.29209 1.72793 7.08016 1.76432 6.90495 1.87483C5.28253 2.91363 3.96514 4.36472 3.0875 6.07968C3.02586 6.19865 2.99589 6.33148 3.00045 6.4654C3.00502 6.59931 3.04398 6.72979 3.11358 6.84429C3.18318 6.95878 3.28108 7.05344 3.39785 7.11914C3.51463 7.18485 3.64635 7.21939 3.78034 7.21945ZM21.9405 17.3622C22.0788 17.5994 22.1522 17.8688 22.1531 18.1434C22.154 18.4179 22.0826 18.6879 21.9459 18.926C21.8092 19.1641 21.6122 19.362 21.3746 19.4996C21.1371 19.6373 20.8675 19.7099 20.5929 19.7101H16.6115C16.4324 20.5924 15.9536 21.3857 15.2565 21.9556C14.5594 22.5254 13.6867 22.8366 12.7863 22.8366C11.8859 22.8366 11.0132 22.5254 10.3161 21.9556C9.61891 21.3857 9.14019 20.5924 8.96102 19.7101H4.97963C4.70525 19.7095 4.43585 19.6367 4.19858 19.4989C3.96131 19.3611 3.76455 19.1632 3.62811 18.9251C3.49167 18.6871 3.42037 18.4173 3.4214 18.1429C3.42242 17.8685 3.49574 17.5992 3.63396 17.3622C4.51319 15.8448 4.97963 13.6872 4.97963 11.1228C4.97963 9.05232 5.80212 7.06667 7.26614 5.60264C8.73017 4.13861 10.7158 3.31613 12.7863 3.31613C14.8567 3.31613 16.8424 4.13861 18.3064 5.60264C19.7704 7.06667 20.5929 9.05232 20.5929 11.1228C20.5929 13.6863 21.0594 15.8438 21.9405 17.3622ZM14.9936 19.7101H10.5789C10.7407 20.1662 11.0397 20.561 11.435 20.8402C11.8303 21.1194 12.3023 21.2694 12.7863 21.2694C13.2702 21.2694 13.7423 21.1194 14.1375 20.8402C14.5328 20.561 14.8319 20.1662 14.9936 19.7101ZM20.5929 18.1487C19.5546 16.3659 19.0316 14.0024 19.0316 11.1228C19.0316 9.46641 18.3736 7.87789 17.2024 6.70666C16.0312 5.53544 14.4426 4.87745 12.7863 4.87745C11.1299 4.87745 9.54139 5.53544 8.37017 6.70666C7.19895 7.87789 6.54096 9.46641 6.54096 11.1228C6.54096 14.0034 6.01596 16.3669 4.97963 18.1487H20.5929Z" fill="white"/>
</svg>
