<svg width="25" height="26" viewBox="0 0 25 26" fill="none" xmlns="http://www.w3.org/2000/svg">
<path d="M22.5435 21.6246C21.0573 19.0553 18.767 17.2129 16.0942 16.3395C17.4163 15.5525 18.4435 14.3532 19.018 12.9259C19.5925 11.4985 19.6826 9.92208 19.2745 8.43858C18.8663 6.95508 17.9825 5.64657 16.7587 4.714C15.5349 3.78143 14.0388 3.27637 12.5002 3.27637C10.9616 3.27637 9.46552 3.78143 8.24173 4.714C7.01793 5.64657 6.1341 6.95508 5.72595 8.43858C5.31781 9.92208 5.40792 11.4985 5.98245 12.9259C6.55698 14.3532 7.58415 15.5525 8.90624 16.3395C6.23344 17.2119 3.94317 19.0543 2.45698 21.6246C2.40248 21.7135 2.36633 21.8124 2.35066 21.9154C2.335 22.0185 2.34013 22.1237 2.36576 22.2247C2.3914 22.3258 2.43701 22.4207 2.49991 22.5038C2.56281 22.5869 2.64172 22.6566 2.73199 22.7088C2.82226 22.7609 2.92207 22.7944 3.02551 22.8074C3.12895 22.8203 3.23393 22.8124 3.33427 22.7841C3.43461 22.7559 3.52827 22.7078 3.60972 22.6427C3.69117 22.5776 3.75876 22.4969 3.8085 22.4053C5.64697 19.228 8.89648 17.331 12.5002 17.331C16.104 17.331 19.3535 19.228 21.1919 22.4053C21.2417 22.4969 21.3093 22.5776 21.3907 22.6427C21.4722 22.7078 21.5658 22.7559 21.6662 22.7841C21.7665 22.8124 21.8715 22.8203 21.9749 22.8074C22.0784 22.7944 22.1782 22.7609 22.2685 22.7088C22.3587 22.6566 22.4376 22.5869 22.5005 22.5038C22.5634 22.4207 22.609 22.3258 22.6347 22.2247C22.6603 22.1237 22.6654 22.0185 22.6498 21.9154C22.6341 21.8124 22.598 21.7135 22.5435 21.6246ZM7.03557 10.305C7.03557 9.22419 7.35607 8.16766 7.95653 7.269C8.557 6.37035 9.41046 5.66993 10.409 5.25632C11.4075 4.84272 12.5063 4.7345 13.5663 4.94535C14.6264 5.15621 15.6001 5.67666 16.3643 6.44091C17.1286 7.20515 17.649 8.17886 17.8599 9.2389C18.0707 10.2989 17.9625 11.3977 17.5489 12.3962C17.1353 13.3948 16.4349 14.2482 15.5362 14.8487C14.6376 15.4492 13.581 15.7696 12.5002 15.7696C11.0514 15.7681 9.66233 15.1919 8.63785 14.1674C7.61336 13.1429 7.03712 11.7538 7.03557 10.305Z" fill="white"/>
</svg>
