<svg width="21" height="21" viewBox="0 0 21 21" fill="none" xmlns="http://www.w3.org/2000/svg">
<path d="M9.59668 14.1921C9.59668 14.3579 9.53083 14.5169 9.41362 14.6341C9.29641 14.7513 9.13744 14.8171 8.97168 14.8171H6.78418C6.61842 14.8171 6.45945 14.7513 6.34224 14.6341C6.22503 14.5169 6.15918 14.3579 6.15918 14.1921C6.15918 14.0264 6.22503 13.8674 6.34224 13.7502C6.45945 13.633 6.61842 13.5671 6.78418 13.5671H8.97168C9.13744 13.5671 9.29641 13.633 9.41362 13.7502C9.53083 13.8674 9.59668 14.0264 9.59668 14.1921ZM14.2842 13.5671H12.0967C11.9309 13.5671 11.7719 13.633 11.6547 13.7502C11.5375 13.8674 11.4717 14.0264 11.4717 14.1921C11.4717 14.3579 11.5375 14.5169 11.6547 14.6341C11.7719 14.7513 11.9309 14.8171 12.0967 14.8171H14.2842C14.4499 14.8171 14.6089 14.7513 14.7261 14.6341C14.8433 14.5169 14.9092 14.3579 14.9092 14.1921C14.9092 14.0264 14.8433 13.8674 14.7261 13.7502C14.6089 13.633 14.4499 13.5671 14.2842 13.5671ZM19.2842 17.3171C19.2842 17.4829 19.2183 17.6419 19.1011 17.7591C18.9839 17.8763 18.8249 17.9421 18.6592 17.9421H2.40918C2.24342 17.9421 2.08445 17.8763 1.96724 17.7591C1.85003 17.6419 1.78418 17.4829 1.78418 17.3171C1.78418 17.1514 1.85003 16.9924 1.96724 16.8752C2.08445 16.758 2.24342 16.6921 2.40918 16.6921H3.03418V7.31714C3.03418 7.20107 3.0665 7.08729 3.12752 6.98856C3.18854 6.88982 3.27586 6.81003 3.37967 6.75812C3.48349 6.70621 3.59971 6.68424 3.71531 6.69466C3.83091 6.70509 3.94132 6.7475 4.03418 6.81714L8.03418 9.81714V7.31714C8.03418 7.20107 8.0665 7.08729 8.12752 6.98856C8.18855 6.88982 8.27586 6.81003 8.37967 6.75812C8.48349 6.70621 8.59971 6.68424 8.71531 6.69466C8.83091 6.70509 8.94132 6.7475 9.03418 6.81714L12.0607 9.08667L12.9639 2.76558C13.0076 2.4682 13.1565 2.19636 13.3836 1.9994C13.6106 1.80244 13.9008 1.69343 14.2014 1.69214H15.617C15.9176 1.69343 16.2077 1.80244 16.4348 1.9994C16.6618 2.19636 16.8108 2.4682 16.8545 2.76558L18.0264 10.9789C18.0264 10.9789 18.0326 11.0398 18.0326 11.0671V16.6921H18.6576C18.7398 16.6919 18.8213 16.7079 18.8973 16.7393C18.9733 16.7706 19.0424 16.8166 19.1006 16.8746C19.1588 16.9327 19.205 17.0017 19.2365 17.0776C19.268 17.1535 19.2842 17.2349 19.2842 17.3171ZM13.2014 9.94214L13.8678 10.4421H16.6889L15.617 2.94214H14.2014L13.2014 9.94214ZM4.28418 16.6921H16.7842V11.6921H13.6592C13.5239 11.6921 13.3924 11.6483 13.2842 11.5671L12.1592 10.7234L9.28418 8.56714V11.0671C9.28418 11.1832 9.25186 11.297 9.19084 11.3957C9.12982 11.4945 9.0425 11.5742 8.93869 11.6262C8.83487 11.6781 8.71865 11.7 8.60305 11.6896C8.48745 11.6792 8.37704 11.6368 8.28418 11.5671L4.28418 8.56714V16.6921Z" fill="black"/>
</svg>
