<svg width="24" height="25" viewBox="0 0 24 25" fill="none" xmlns="http://www.w3.org/2000/svg">
<path d="M6.75 10.1047C6.75 9.90582 6.82902 9.71506 6.96967 9.57441C7.11032 9.43375 7.30109 9.35474 7.5 9.35474H16.5C16.6989 9.35474 16.8897 9.43375 17.0303 9.57441C17.171 9.71506 17.25 9.90582 17.25 10.1047C17.25 10.3036 17.171 10.4944 17.0303 10.6351C16.8897 10.7757 16.6989 10.8547 16.5 10.8547H7.5C7.30109 10.8547 7.11032 10.7757 6.96967 10.6351C6.82902 10.4944 6.75 10.3036 6.75 10.1047ZM7.5 13.8547H16.5C16.6989 13.8547 16.8897 13.7757 17.0303 13.6351C17.171 13.4944 17.25 13.3036 17.25 13.1047C17.25 12.9058 17.171 12.7151 17.0303 12.5744C16.8897 12.4338 16.6989 12.3547 16.5 12.3547H7.5C7.30109 12.3547 7.11032 12.4338 6.96967 12.5744C6.82902 12.7151 6.75 12.9058 6.75 13.1047C6.75 13.3036 6.82902 13.4944 6.96967 13.6351C7.11032 13.7757 7.30109 13.8547 7.5 13.8547ZM21.75 5.60474V19.8547C21.7499 19.9826 21.7172 20.1083 21.6549 20.2199C21.5926 20.3315 21.5028 20.4253 21.394 20.4925C21.2853 20.5597 21.1611 20.5979 21.0334 20.6036C20.9057 20.6093 20.7787 20.5823 20.6644 20.525L18 19.1929L15.3356 20.525C15.2314 20.5772 15.1165 20.6043 15 20.6043C14.8835 20.6043 14.7686 20.5772 14.6644 20.525L12 19.1929L9.33563 20.525C9.23143 20.5772 9.11652 20.6043 9 20.6043C8.88348 20.6043 8.76857 20.5772 8.66437 20.525L6 19.1929L3.33563 20.525C3.22131 20.5823 3.09427 20.6093 2.96657 20.6036C2.83887 20.5979 2.71474 20.5597 2.60597 20.4925C2.49721 20.4253 2.40741 20.3315 2.34511 20.2199C2.28281 20.1083 2.25007 19.9826 2.25 19.8547V5.60474C2.25 5.20691 2.40804 4.82538 2.68934 4.54408C2.97064 4.26277 3.35218 4.10474 3.75 4.10474H20.25C20.6478 4.10474 21.0294 4.26277 21.3107 4.54408C21.592 4.82538 21.75 5.20691 21.75 5.60474ZM20.25 5.60474H3.75V18.6416L5.66437 17.6835C5.76857 17.6313 5.88349 17.6042 6 17.6042C6.11651 17.6042 6.23143 17.6313 6.33563 17.6835L9 19.0166L11.6644 17.6835C11.7686 17.6313 11.8835 17.6042 12 17.6042C12.1165 17.6042 12.2314 17.6313 12.3356 17.6835L15 19.0166L17.6644 17.6835C17.7686 17.6313 17.8835 17.6042 18 17.6042C18.1165 17.6042 18.2314 17.6313 18.3356 17.6835L20.25 18.6416V5.60474Z" fill="white"/>
</svg>
