<svg width="21" height="21" viewBox="0 0 21 21" fill="none" xmlns="http://www.w3.org/2000/svg">
<path d="M10.5345 6.40189C9.79278 6.40189 9.06776 6.62183 8.45107 7.03388C7.83439 7.44594 7.35374 8.03161 7.06991 8.71683C6.78608 9.40205 6.71182 10.1561 6.85652 10.8835C7.00121 11.6109 7.35836 12.2791 7.88281 12.8035C8.40726 13.328 9.07544 13.6851 9.80287 13.8298C10.5303 13.9745 11.2843 13.9003 11.9695 13.6164C12.6547 13.3326 13.2404 12.852 13.6525 12.2353C14.0645 11.6186 14.2845 10.8936 14.2845 10.1519C14.2834 9.15765 13.888 8.20442 13.185 7.50138C12.4819 6.79835 11.5287 6.40293 10.5345 6.40189ZM10.5345 12.6519C10.04 12.6519 9.55666 12.5053 9.14553 12.2306C8.73441 11.9559 8.41398 11.5654 8.22476 11.1086C8.03554 10.6518 7.98603 10.1491 8.0825 9.66417C8.17896 9.17921 8.41706 8.73376 8.76669 8.38412C9.11632 8.03449 9.56178 7.79639 10.0467 7.69993C10.5317 7.60347 11.0344 7.65297 11.4912 7.84219C11.948 8.03141 12.3384 8.35184 12.6131 8.76297C12.8878 9.17409 13.0345 9.65744 13.0345 10.1519C13.0345 10.8149 12.7711 11.4508 12.3022 11.9197C11.8334 12.3885 11.1975 12.6519 10.5345 12.6519ZM17.4095 10.3206C17.4126 10.2081 17.4126 10.0956 17.4095 9.98314L18.5751 8.52689C18.6362 8.45043 18.6785 8.36069 18.6986 8.26488C18.7187 8.16908 18.716 8.0699 18.6907 7.97533C18.4996 7.25705 18.2138 6.5674 17.8407 5.92455C17.7919 5.84042 17.7241 5.76886 17.6427 5.71556C17.5613 5.66225 17.4686 5.62868 17.372 5.61752L15.5188 5.41127C15.4418 5.33002 15.3636 5.25189 15.2845 5.17689L15.0657 3.31908C15.0545 3.22237 15.0208 3.12963 14.9673 3.04824C14.9139 2.96686 14.8422 2.89909 14.7579 2.85033C14.1148 2.47794 13.4252 2.19239 12.7071 2.00111C12.6125 1.97595 12.5133 1.97338 12.4175 1.9936C12.3217 2.01382 12.2319 2.05626 12.1556 2.11752L10.7032 3.27689C10.5907 3.27689 10.4782 3.27689 10.3657 3.27689L8.90946 2.11361C8.833 2.05249 8.74325 2.01019 8.64745 1.9901C8.55165 1.97002 8.45247 1.97272 8.3579 1.99798C7.63973 2.18941 6.95013 2.47524 6.30712 2.84798C6.22299 2.89683 6.15143 2.96465 6.09812 3.04602C6.04482 3.1274 6.01125 3.2201 6.00008 3.31673L5.79383 5.17299C5.71258 5.25059 5.63446 5.32871 5.55946 5.40736L3.70165 5.62064C3.60494 5.63189 3.51219 5.66558 3.43081 5.71902C3.34943 5.77247 3.28166 5.84418 3.2329 5.92845C2.86051 6.57155 2.57496 7.26114 2.38368 7.97924C2.35852 8.07386 2.35595 8.17308 2.37617 8.26889C2.39639 8.36469 2.43883 8.45441 2.50008 8.5308L3.65946 9.98314C3.65946 10.0956 3.65946 10.2081 3.65946 10.3206L2.49618 11.7769C2.43506 11.8534 2.39275 11.9431 2.37267 12.0389C2.35259 12.1347 2.35529 12.2339 2.38055 12.3285C2.57164 13.0467 2.85748 13.7364 3.23055 14.3792C3.2794 14.4634 3.34721 14.5349 3.42859 14.5882C3.50997 14.6415 3.60267 14.6751 3.6993 14.6863L5.55243 14.8925C5.63003 14.9738 5.70816 15.0519 5.7868 15.1269L6.00321 16.9847C6.01446 17.0814 6.04815 17.1742 6.10159 17.2555C6.15503 17.3369 6.22675 17.4047 6.31102 17.4535C6.95412 17.8258 7.64371 18.1114 8.3618 18.3027C8.45643 18.3278 8.55565 18.3304 8.65145 18.3102C8.74726 18.29 8.83697 18.2475 8.91337 18.1863L10.3657 17.0269C10.4782 17.03 10.5907 17.03 10.7032 17.0269L12.1595 18.1925C12.2359 18.2536 12.3257 18.2959 12.4215 18.316C12.5173 18.3361 12.6165 18.3334 12.711 18.3081C13.4293 18.1171 14.119 17.8312 14.7618 17.4581C14.8459 17.4093 14.9175 17.3415 14.9708 17.2601C15.0241 17.1787 15.0577 17.086 15.0688 16.9894L15.2751 15.1363C15.3563 15.0592 15.4345 14.9811 15.5095 14.9019L17.3673 14.6831C17.464 14.6719 17.5567 14.6382 17.6381 14.5848C17.7195 14.5313 17.7873 14.4596 17.836 14.3753C18.2084 13.7322 18.494 13.0426 18.6852 12.3245C18.7104 12.2299 18.713 12.1307 18.6928 12.0349C18.6725 11.9391 18.6301 11.8494 18.5688 11.773L17.4095 10.3206ZM16.1516 9.81283C16.1649 10.0387 16.1649 10.2651 16.1516 10.491C16.1423 10.6456 16.1908 10.7981 16.2876 10.9191L17.3962 12.3042C17.269 12.7085 17.1061 13.1007 16.9095 13.4761L15.1438 13.6761C14.9901 13.6932 14.8481 13.7667 14.7454 13.8824C14.595 14.0515 14.4348 14.2117 14.2657 14.362C14.15 14.4648 14.0765 14.6067 14.0595 14.7605L13.8634 16.5245C13.488 16.7213 13.0958 16.8842 12.6915 17.0113L11.3056 15.9027C11.1947 15.8141 11.0569 15.7658 10.9149 15.766H10.8774C10.6516 15.7792 10.4252 15.7792 10.1993 15.766C10.0447 15.7566 9.89211 15.8051 9.77118 15.9019L8.38212 17.0113C7.97785 16.8841 7.58568 16.7212 7.21024 16.5245L7.01024 14.7613C6.99317 14.6075 6.91968 14.4655 6.80399 14.3628C6.63486 14.2124 6.47469 14.0523 6.3243 13.8831C6.2216 13.7674 6.07963 13.694 5.92587 13.6769L4.1618 13.48C3.96508 13.1046 3.80219 12.7124 3.67508 12.3081L4.78368 10.9222C4.88048 10.8013 4.92892 10.6487 4.91962 10.4941C4.90634 10.2682 4.90634 10.0418 4.91962 9.81595C4.92892 9.66133 4.88048 9.50876 4.78368 9.38783L3.67508 7.99955C3.80229 7.59528 3.96517 7.20311 4.1618 6.82767L5.92508 6.62767C6.07885 6.6106 6.22081 6.53712 6.32352 6.42142C6.47391 6.25229 6.63408 6.09212 6.80321 5.94174C6.91936 5.83896 6.99315 5.69667 7.01024 5.54252L7.20634 3.77924C7.58173 3.58251 7.9739 3.41963 8.37821 3.29252L9.76415 4.40111C9.88508 4.49791 10.0377 4.54636 10.1923 4.53705C10.4181 4.52377 10.6446 4.52377 10.8704 4.53705C11.025 4.54636 11.1776 4.49791 11.2985 4.40111L12.6868 3.29252C13.0911 3.41972 13.4832 3.5826 13.8587 3.77924L14.0587 5.54252C14.0757 5.69628 14.1492 5.83825 14.2649 5.94095C14.4341 6.09134 14.5942 6.25151 14.7446 6.42064C14.8473 6.53633 14.9893 6.60982 15.1431 6.62689L16.9071 6.82299C17.1038 7.19838 17.2667 7.59055 17.3938 7.99486L16.2852 9.3808C16.1875 9.50275 16.139 9.65689 16.1493 9.81283H16.1516Z" fill="#020100"/>
</svg>
