<svg width="19" height="21" viewBox="0 0 19 21" fill="none" xmlns="http://www.w3.org/2000/svg">
<path fill-rule="evenodd" clip-rule="evenodd" d="M15.8112 1.03826C15.2865 0.720298 14.7276 0.689528 14.1373 0.768506C13.5764 0.844407 12.893 1.03519 12.0726 1.26597L10.1534 1.80343C9.33311 2.03421 8.6506 2.22499 8.12874 2.45372C7.57836 2.69373 7.10307 3.0158 6.79509 3.5748C6.48521 4.13688 6.45479 4.73794 6.53178 5.36566C6.60498 5.95749 6.78844 6.67547 7.00707 7.5309L7.52323 9.54536C7.74186 10.4018 7.92627 11.1188 8.14585 11.6685C8.37874 12.2532 8.68957 12.7506 9.21809 13.0707C9.7428 13.3876 10.3017 13.4194 10.893 13.3394C11.4538 13.2645 12.1373 13.0727 12.9576 12.8419L14.8768 12.3045C15.6972 12.0747 16.3797 11.8829 16.9015 11.6542C17.4519 11.4142 17.9272 11.0921 18.2352 10.5331C18.5451 9.97102 18.5755 9.36997 18.4985 8.74327C18.4253 8.15144 18.2418 7.43243 18.0232 6.577L17.507 4.56254C17.2884 3.70712 17.104 2.98913 16.8844 2.43936C16.6515 1.85471 16.3388 1.35725 15.8112 1.03826ZM12.3854 2.76758C13.2647 2.52142 13.8569 2.3573 14.315 2.29576C14.7533 2.23627 14.9633 2.28858 15.1164 2.3809C15.2656 2.47116 15.4091 2.62809 15.5755 3.0476C15.7513 3.48864 15.911 4.10303 16.1468 5.02411L16.6354 6.93497C16.8721 7.85604 17.028 8.47146 17.0859 8.94533C17.1411 9.39561 17.0916 9.59972 17.0099 9.74639C16.9272 9.89717 16.777 10.05 16.3683 10.2285C15.9424 10.4141 15.3512 10.5823 14.4719 10.8285L12.6468 11.3403C11.7675 11.5865 11.1753 11.7506 10.7171 11.8121C10.278 11.8727 10.0688 11.8203 9.91581 11.728C9.76657 11.6378 9.62303 11.4798 9.45668 11.0613C9.28083 10.6203 9.12113 10.0049 8.88539 9.0838L8.3968 7.17396C8.16011 6.25083 8.00421 5.63644 7.94623 5.1636C7.8911 4.7123 7.94053 4.50921 8.02227 4.36151C8.10497 4.21073 8.25516 4.0579 8.66391 3.87943C9.08976 3.69378 9.68102 3.52659 10.5603 3.2794L12.3854 2.76758Z" fill="black"/>
<path fill-rule="evenodd" clip-rule="evenodd" d="M1.65808 3.27018C1.47799 3.22253 1.28778 3.25248 1.12781 3.35365C0.967843 3.45482 0.850699 3.61927 0.801231 3.81209C0.751763 4.00491 0.773865 4.21095 0.862847 4.38648C0.951829 4.56202 1.10069 4.69323 1.27785 4.7523L2.89667 5.23745C3.30161 5.35849 3.60294 5.68876 3.7056 6.0898L5.56111 13.3343C5.4895 13.3493 5.41821 13.3671 5.34723 13.3876C3.46796 13.9138 2.31967 15.9539 2.83488 17.9694C3.34819 19.9746 5.30065 21.1306 7.17232 20.6054C8.8111 20.1469 9.8938 18.5376 9.80255 16.798L17.8063 14.5538C17.897 14.5284 17.9821 14.484 18.0568 14.4231C18.1315 14.3623 18.1944 14.2861 18.2418 14.199C18.2893 14.1119 18.3204 14.0156 18.3333 13.9155C18.3462 13.8154 18.3408 13.7136 18.3173 13.6158C18.2937 13.518 18.2526 13.4262 18.1962 13.3456C18.1397 13.2649 18.0692 13.1971 17.9884 13.1459C17.9077 13.0947 17.8184 13.0612 17.7257 13.0472C17.633 13.0332 17.5386 13.0391 17.448 13.0645L9.42707 15.3139C9.18706 14.8191 8.84933 14.3872 8.43773 14.0487C8.02612 13.7102 7.55068 13.4733 7.04495 13.3548L5.08012 5.67953C4.95926 5.21795 4.72977 4.79797 4.41395 4.46043C4.09814 4.12289 3.70675 3.87928 3.27784 3.75328L1.65808 3.27018ZM5.70655 14.8759C6.85864 14.5538 8.01453 15.2749 8.3111 16.4339C8.60578 17.5827 7.95939 18.7961 6.81491 19.1171C5.66282 19.4402 4.50693 18.7181 4.21035 17.5591C3.91568 16.4103 4.56206 15.1969 5.70655 14.8759Z" fill="black"/>
</svg>
