<svg width="25" height="24" viewBox="0 0 25 24" fill="none" xmlns="http://www.w3.org/2000/svg">
<g clip-path="url(#clip0_348_1662)">
<path d="M7.49947 18.0002C6.25174 18.0002 5.05512 17.5261 4.17285 16.6822C3.29058 15.8383 2.79492 14.6937 2.79492 13.5002C2.79492 12.3067 3.29058 11.1621 4.17285 10.3182C5.05512 9.4743 6.25174 9.0002 7.49947 9.0002C7.79415 7.68737 8.65623 6.53368 9.89605 5.79291C10.51 5.42612 11.1981 5.17174 11.9212 5.04431C12.6444 4.91687 13.3883 4.91887 14.1106 5.0502C14.8328 5.18152 15.5193 5.43959 16.1308 5.80968C16.7422 6.17976 17.2667 6.65461 17.6742 7.20712C18.0818 7.75963 18.3644 8.37898 18.506 9.02979C18.6476 9.68061 18.6454 10.3502 18.4995 11.0002H19.4995C20.4277 11.0002 21.318 11.3689 21.9743 12.0253C22.6307 12.6817 22.9995 13.5719 22.9995 14.5002C22.9995 15.4285 22.6307 16.3187 21.9743 16.9751C21.318 17.6314 20.4277 18.0002 19.4995 18.0002H18.4995" stroke="#484848" stroke-width="2" stroke-linecap="round" stroke-linejoin="round"/>
<path d="M9.5 15L12.5 12L15.5 15" stroke="#484848" stroke-width="2" stroke-linecap="round" stroke-linejoin="round"/>
<path d="M12.5 12V21" stroke="#484848" stroke-width="2" stroke-linecap="round" stroke-linejoin="round"/>
</g>
<defs>
<clipPath id="clip0_348_1662">
<rect width="24" height="24" fill="white" transform="translate(0.5)"/>
</clipPath>
</defs>
</svg>
