<svg width="35" height="36" viewBox="0 0 35 36" fill="none" xmlns="http://www.w3.org/2000/svg">
<path d="M17.5 22.3753V3.41699M17.5 3.41699L21.875 8.52116M17.5 3.41699L13.125 8.52116" stroke="white" stroke-width="3" stroke-linecap="round" stroke-linejoin="round"/>
<path d="M11.666 32.5833H23.3327C27.4568 32.5833 29.5204 32.5833 30.8008 31.3029C32.0827 30.0196 32.0827 27.959 32.0827 23.8333V22.375C32.0827 18.2508 32.0827 16.1888 30.8008 14.9069C29.6808 13.7869 27.9629 13.6454 24.791 13.6279M10.2077 13.6279C7.03581 13.6454 5.31789 13.7869 4.19789 14.9069C2.91602 16.1888 2.91602 18.2508 2.91602 22.375V23.8333C2.91602 27.959 2.91602 30.0211 4.19789 31.3029C4.63539 31.7404 5.16331 32.0277 5.83268 32.2173" stroke="white" stroke-width="3" stroke-linecap="round"/>
</svg>
